<svg xmlns="http://www.w3.org/2000/svg" xmlns:xlink="http://www.w3.org/1999/xlink" width="250" zoomAndPan="magnify" viewBox="0 0 187.5 187.499992" height="250" preserveAspectRatio="xMidYMid meet" version="1.0"><defs><g/><clipPath id="04f6da9724"><path d="M 89.710938 44.265625 L 172.285156 44.265625 L 172.285156 56.890625 L 89.710938 56.890625 Z M 89.710938 44.265625 " clip-rule="nonzero"/></clipPath><clipPath id="c19977ba93"><path d="M 0.710938 0.265625 L 83.285156 0.265625 L 83.285156 12.890625 L 0.710938 12.890625 Z M 0.710938 0.265625 " clip-rule="nonzero"/></clipPath><clipPath id="07a8b03a42"><rect x="0" width="84" y="0" height="13"/></clipPath><clipPath id="7d203bde7e"><rect x="0" width="87" y="0" height="119"/></clipPath><clipPath id="03f8e1e8cc"><rect x="0" width="73" y="0" height="119"/></clipPath><clipPath id="97c326780a"><path d="M 16.484375 128.886719 L 100.617188 128.886719 L 100.617188 141.507812 L 16.484375 141.507812 Z M 16.484375 128.886719 " clip-rule="nonzero"/></clipPath><clipPath id="2578ff2ee2"><path d="M 0.484375 0.886719 L 84.617188 0.886719 L 84.617188 13.507812 L 0.484375 13.507812 Z M 0.484375 0.886719 " clip-rule="nonzero"/></clipPath><clipPath id="5c698dc7fd"><rect x="0" width="85" y="0" height="14"/></clipPath></defs><g clip-path="url(#04f6da9724)"><g transform="matrix(1, 0, 0, 1, 89, 44)"><g clip-path="url(#07a8b03a42)"><g clip-path="url(#c19977ba93)"><path fill="#000000" d="M 0.710938 0.265625 L 83.304688 0.265625 L 83.304688 12.890625 L 0.710938 12.890625 Z M 0.710938 0.265625 " fill-opacity="1" fill-rule="nonzero"/></g></g></g></g><g transform="matrix(1, 0, 0, 1, 11, 14)"><g clip-path="url(#7d203bde7e)"><g fill="#ffffff" fill-opacity="1"><g transform="translate(1.064837, 87.389219)"><g><path d="M 33.96875 1.140625 C 28.03125 1.140625 22.757812 -0.125 18.15625 -2.65625 C 13.5625 -5.1875 9.972656 -8.679688 7.390625 -13.140625 C 4.804688 -17.609375 3.515625 -22.753906 3.515625 -28.578125 C 3.515625 -34.398438 4.804688 -39.539062 7.390625 -44 C 9.972656 -48.46875 13.5625 -51.96875 18.15625 -54.5 C 22.757812 -57.03125 28.03125 -58.296875 33.96875 -58.296875 C 39.945312 -58.296875 45.222656 -57.03125 49.796875 -54.5 C 54.367188 -51.96875 57.960938 -48.46875 60.578125 -44 C 63.191406 -39.539062 64.5 -34.398438 64.5 -28.578125 C 64.5 -22.316406 62.957031 -16.804688 59.875 -12.046875 C 56.800781 -7.285156 52.679688 -3.785156 47.515625 -1.546875 L 48.171875 0 C 48.765625 1.300781 49.375 2.289062 50 2.96875 C 50.625 3.65625 51.46875 4.132812 52.53125 4.40625 C 53.59375 4.675781 54.992188 4.8125 56.734375 4.8125 L 61.234375 4.8125 L 61.234375 14.859375 L 53.96875 14.859375 C 45.695312 14.859375 40.0625 11.320312 37.0625 4.25 L 35.765625 1.0625 Z M 16.734375 -28.578125 C 16.734375 -25.148438 17.46875 -22.128906 18.9375 -19.515625 C 20.40625 -16.898438 22.429688 -14.859375 25.015625 -13.390625 C 27.609375 -11.921875 30.59375 -11.1875 33.96875 -11.1875 C 37.394531 -11.1875 40.398438 -11.921875 42.984375 -13.390625 C 45.566406 -14.859375 47.578125 -16.898438 49.015625 -19.515625 C 50.460938 -22.128906 51.1875 -25.148438 51.1875 -28.578125 C 51.1875 -32.003906 50.460938 -35.023438 49.015625 -37.640625 C 47.578125 -40.253906 45.566406 -42.296875 42.984375 -43.765625 C 40.398438 -45.234375 37.394531 -45.96875 33.96875 -45.96875 C 30.59375 -45.96875 27.609375 -45.234375 25.015625 -43.765625 C 22.429688 -42.296875 20.40625 -40.253906 18.9375 -37.640625 C 17.46875 -35.023438 16.734375 -32.003906 16.734375 -28.578125 Z M 16.734375 -28.578125 "/></g></g></g></g></g><g transform="matrix(1, 0, 0, 1, 114, 53)"><g clip-path="url(#03f8e1e8cc)"><g fill="#ffffff" fill-opacity="1"><g transform="translate(0.323816, 86.441525)"><g><path d="M 0.734375 0 L 23.46875 -57.234375 L 36.21875 -57.234375 L 58.953125 0 L 45.046875 0 L 41.203125 -9.890625 L 18.484375 -9.890625 L 14.640625 0 Z M 21.828125 -20.109375 L 37.9375 -20.109375 L 29.84375 -41.046875 Z M 21.828125 -20.109375 "/></g></g></g></g></g><g clip-path="url(#97c326780a)"><g transform="matrix(1, 0, 0, 1, 16, 128)"><g clip-path="url(#5c698dc7fd)"><g clip-path="url(#2578ff2ee2)"><path fill="#000000" d="M 0.484375 0.886719 L 84.605469 0.886719 L 84.605469 13.507812 L 0.484375 13.507812 Z M 0.484375 0.886719 " fill-opacity="1" fill-rule="nonzero"/></g></g></g></g></svg>