<svg xmlns="http://www.w3.org/2000/svg" xmlns:xlink="http://www.w3.org/1999/xlink" width="815" zoomAndPan="magnify" viewBox="0 0 611.25 149.999998" height="200" preserveAspectRatio="xMidYMid meet" version="1.0"><defs><g/><clipPath id="ca8fd2fdac"><path d="M 36.160156 109.925781 L 304.039062 109.925781 L 304.039062 125.851562 L 36.160156 125.851562 Z M 36.160156 109.925781 " clip-rule="nonzero"/></clipPath><clipPath id="ecc144ec77"><path d="M 0.160156 0.925781 L 268.039062 0.925781 L 268.039062 16.851562 L 0.160156 16.851562 Z M 0.160156 0.925781 " clip-rule="nonzero"/></clipPath><clipPath id="bc92bb3792"><rect x="0" width="269" y="0" height="17"/></clipPath><clipPath id="347a9467fe"><path d="M 338.53125 21.0625 L 559.3125 21.0625 L 559.3125 36.988281 L 338.53125 36.988281 Z M 338.53125 21.0625 " clip-rule="nonzero"/></clipPath><clipPath id="bd702ec880"><path d="M 0.53125 0.0625 L 221.3125 0.0625 L 221.3125 15.988281 L 0.53125 15.988281 Z M 0.53125 0.0625 " clip-rule="nonzero"/></clipPath><clipPath id="9a03e94fab"><rect x="0" width="222" y="0" height="16"/></clipPath><clipPath id="d28d0b0d38"><path d="M 24 0.09375 L 336 0.09375 L 336 130 L 24 130 Z M 24 0.09375 " clip-rule="nonzero"/></clipPath><clipPath id="37a37e51cd"><rect x="0" width="312" y="0" height="130"/></clipPath><clipPath id="b4f68ad66a"><path d="M 333 27 L 583 27 L 583 149.90625 L 333 149.90625 Z M 333 27 " clip-rule="nonzero"/></clipPath><clipPath id="40ff1ab8df"><rect x="0" width="250" y="0" height="123"/></clipPath></defs><g clip-path="url(#ca8fd2fdac)"><g transform="matrix(1, 0, 0, 1, 36, 109)"><g clip-path="url(#bc92bb3792)"><g clip-path="url(#ecc144ec77)"><path fill="#000000" d="M 0.160156 0.925781 L 268.023438 0.925781 L 268.023438 16.851562 L 0.160156 16.851562 Z M 0.160156 0.925781 " fill-opacity="1" fill-rule="nonzero"/></g></g></g></g><g clip-path="url(#347a9467fe)"><g transform="matrix(1, 0, 0, 1, 338, 21)"><g clip-path="url(#9a03e94fab)"><g clip-path="url(#bd702ec880)"><path fill="#000000" d="M 0.53125 0.0625 L 221.304688 0.0625 L 221.304688 15.988281 L 0.53125 15.988281 Z M 0.53125 0.0625 " fill-opacity="1" fill-rule="nonzero"/></g></g></g></g><g clip-path="url(#d28d0b0d38)"><g transform="matrix(1, 0, 0, 1, 24, -0.000000000000002068)"><g clip-path="url(#37a37e51cd)"><g fill="#ffffff" fill-opacity="1"><g transform="translate(0.553857, 92.447402)"><g><path d="M 38.46875 1.296875 C 31.75 1.296875 25.785156 -0.132812 20.578125 -3 C 15.367188 -5.875 11.300781 -9.835938 8.375 -14.890625 C 5.445312 -19.941406 3.984375 -25.769531 3.984375 -32.375 C 3.984375 -38.96875 5.445312 -44.789062 8.375 -49.84375 C 11.300781 -54.90625 15.367188 -58.867188 20.578125 -61.734375 C 25.785156 -64.597656 31.75 -66.03125 38.46875 -66.03125 C 45.25 -66.03125 51.226562 -64.597656 56.40625 -61.734375 C 61.59375 -58.867188 65.664062 -54.90625 68.625 -49.84375 C 71.582031 -44.789062 73.0625 -38.96875 73.0625 -32.375 C 73.0625 -25.28125 71.316406 -19.035156 67.828125 -13.640625 C 64.347656 -8.242188 59.679688 -4.28125 53.828125 -1.75 L 54.5625 0 C 55.238281 1.476562 55.929688 2.601562 56.640625 3.375 C 57.347656 4.144531 58.300781 4.679688 59.5 4.984375 C 60.707031 5.296875 62.300781 5.453125 64.28125 5.453125 L 69.359375 5.453125 L 69.359375 16.828125 L 61.125 16.828125 C 51.757812 16.828125 45.378906 12.820312 41.984375 4.8125 L 40.515625 1.203125 Z M 18.953125 -32.375 C 18.953125 -28.488281 19.785156 -25.066406 21.453125 -22.109375 C 23.117188 -19.148438 25.414062 -16.835938 28.34375 -15.171875 C 31.269531 -13.503906 34.644531 -12.671875 38.46875 -12.671875 C 42.351562 -12.671875 45.757812 -13.503906 48.6875 -15.171875 C 51.625 -16.835938 53.90625 -19.148438 55.53125 -22.109375 C 57.164062 -25.066406 57.984375 -28.488281 57.984375 -32.375 C 57.984375 -36.257812 57.164062 -39.679688 55.53125 -42.640625 C 53.90625 -45.597656 51.625 -47.90625 48.6875 -49.5625 C 45.757812 -51.226562 42.351562 -52.0625 38.46875 -52.0625 C 34.644531 -52.0625 31.269531 -51.226562 28.34375 -49.5625 C 25.414062 -47.90625 23.117188 -45.597656 21.453125 -42.640625 C 19.785156 -39.679688 18.953125 -36.257812 18.953125 -32.375 Z M 18.953125 -32.375 "/></g></g></g><g fill="#ffffff" fill-opacity="1"><g transform="translate(96.731084, 92.447402)"><g><path d="M 34.21875 1.296875 C 28.601562 1.296875 23.773438 0.171875 19.734375 -2.078125 C 15.703125 -4.328125 12.59375 -7.53125 10.40625 -11.6875 C 8.21875 -15.851562 7.125 -20.835938 7.125 -26.640625 L 7.125 -64.734375 L 21.828125 -64.734375 L 21.828125 -27.65625 C 21.828125 -17.664062 25.957031 -12.671875 34.21875 -12.671875 C 42.476562 -12.671875 46.609375 -17.664062 46.609375 -27.65625 L 46.609375 -64.734375 L 61.3125 -64.734375 L 61.3125 -26.640625 C 61.3125 -20.835938 60.21875 -15.851562 58.03125 -11.6875 C 55.84375 -7.53125 52.726562 -4.328125 48.6875 -2.078125 C 44.65625 0.171875 39.832031 1.296875 34.21875 1.296875 Z M 34.21875 1.296875 "/></g></g></g><g fill="#ffffff" fill-opacity="1"><g transform="translate(184.308025, 92.447402)"><g><path d="M 7.765625 0 L 7.765625 -64.734375 L 22.46875 -64.734375 L 22.46875 0 Z M 7.765625 0 "/></g></g></g><g fill="#ffffff" fill-opacity="1"><g transform="translate(233.69224, 92.447402)"><g><path d="M 3.890625 0 L 3.890625 -10.640625 L 33.484375 -51.421875 L 4.90625 -51.421875 L 4.90625 -64.734375 L 52.53125 -64.734375 L 52.53125 -54.109375 L 23.03125 -13.3125 L 53.265625 -13.3125 L 53.265625 0 Z M 3.890625 0 "/></g></g></g></g></g></g><g clip-path="url(#b4f68ad66a)"><g transform="matrix(1, 0, 0, 1, 333, 27)"><g clip-path="url(#40ff1ab8df)"><g fill="#ffffff" fill-opacity="1"><g transform="translate(1.016644, 97.467797)"><g><path d="M 0.828125 0 L 26.546875 -64.734375 L 40.96875 -64.734375 L 66.6875 0 L 50.953125 0 L 46.609375 -11.1875 L 20.90625 -11.1875 L 16.5625 0 Z M 24.6875 -22.75 L 42.90625 -22.75 L 33.75 -46.421875 Z M 24.6875 -22.75 "/></g></g></g><g fill="#ffffff" fill-opacity="1"><g transform="translate(87.668822, 97.467797)"><g><path d="M 7.765625 0 L 7.765625 -64.734375 L 33.109375 -64.734375 C 38.347656 -64.734375 42.878906 -63.773438 46.703125 -61.859375 C 50.523438 -59.953125 53.5 -57.242188 55.625 -53.734375 C 57.75 -50.222656 58.8125 -46.09375 58.8125 -41.34375 C 58.8125 -36.65625 57.75 -32.550781 55.625 -29.03125 C 53.5 -25.519531 50.523438 -22.804688 46.703125 -20.890625 C 42.878906 -18.984375 38.347656 -18.03125 33.109375 -18.03125 L 22.46875 -18.03125 L 22.46875 0 Z M 22.375 -30.703125 L 31.90625 -30.703125 C 35.726562 -30.703125 38.671875 -31.609375 40.734375 -33.421875 C 42.804688 -35.242188 43.84375 -37.851562 43.84375 -41.25 C 43.84375 -44.632812 42.804688 -47.253906 40.734375 -49.109375 C 38.671875 -50.960938 35.726562 -51.890625 31.90625 -51.890625 L 22.375 -51.890625 Z M 22.375 -30.703125 "/></g></g></g><g fill="#ffffff" fill-opacity="1"><g transform="translate(168.310039, 97.467797)"><g><path d="M 7.765625 0 L 7.765625 -64.734375 L 33.109375 -64.734375 C 38.347656 -64.734375 42.878906 -63.773438 46.703125 -61.859375 C 50.523438 -59.953125 53.5 -57.242188 55.625 -53.734375 C 57.75 -50.222656 58.8125 -46.09375 58.8125 -41.34375 C 58.8125 -36.65625 57.75 -32.550781 55.625 -29.03125 C 53.5 -25.519531 50.523438 -22.804688 46.703125 -20.890625 C 42.878906 -18.984375 38.347656 -18.03125 33.109375 -18.03125 L 22.46875 -18.03125 L 22.46875 0 Z M 22.375 -30.703125 L 31.90625 -30.703125 C 35.726562 -30.703125 38.671875 -31.609375 40.734375 -33.421875 C 42.804688 -35.242188 43.84375 -37.851562 43.84375 -41.25 C 43.84375 -44.632812 42.804688 -47.253906 40.734375 -49.109375 C 38.671875 -50.960938 35.726562 -51.890625 31.90625 -51.890625 L 22.375 -51.890625 Z M 22.375 -30.703125 "/></g></g></g></g></g></g></svg>
